<?xml version="1.0" standalone="no"?><!DOCTYPE svg PUBLIC "-//W3C//DTD SVG 1.1//EN" "http://www.w3.org/Graphics/SVG/1.1/DTD/svg11.dtd"><svg t="1533362039469" class="icon" style="" viewBox="0 0 1024 1024" version="1.1" xmlns="http://www.w3.org/2000/svg" p-id="4688" xmlns:xlink="http://www.w3.org/1999/xlink" width="128" height="128"><defs><style type="text/css"></style></defs><path d="M65.22 65.06v894h894v-894z m431.6 559.5c0 53.91-44.28 98.19-98.18 98.19s-98.18-44.28-98.18-98.19 44.27-98.18 98.18-98.18h98.18z m0-129h-98.18c-53.91 0-98.18-44.28-98.18-98.18s44.27-98.19 98.18-98.19 98.18 44.28 98.18 98.19z m129 227.17c-53.91 0-98.19-44.28-98.19-98.19v-98.16h98.19c53.9 0 98.18 44.28 98.18 98.18s-44.29 98.19-98.19 98.19z m0-227.17h-98.2V397.4c0-53.91 44.28-98.19 98.19-98.19S724 343.49 724 397.4s-44.29 98.18-98.19 98.18z" fill="#5F8AB7" p-id="4689"></path></svg>