<?xml version="1.0" standalone="no"?><!DOCTYPE svg PUBLIC "-//W3C//DTD SVG 1.1//EN" "http://www.w3.org/Graphics/SVG/1.1/DTD/svg11.dtd"><svg t="1533433338588" class="icon" style="" viewBox="0 0 1024 1024" version="1.1" xmlns="http://www.w3.org/2000/svg" p-id="2388" xmlns:xlink="http://www.w3.org/1999/xlink" width="128" height="128"><defs><style type="text/css"></style></defs><path d="M913.066667 938.666667h-802.133334c-46.08 0-85.333333-37.546667-85.333333-85.333334V278.186667c0-46.08 37.546667-85.333333 85.333333-85.333334H290.133333l52.906667-85.333333c0-11.946667 30.72-22.186667 42.666667-22.186667h254.293333c11.946667 0 42.666667 10.24 42.666667 22.186667l52.906666 85.333333h179.2c46.08 0 85.333333 39.253333 85.333334 85.333334V853.333333c-1.706667 46.08-39.253333 85.333333-87.04 85.333334M512 278.186667c-153.6-1.706667-278.186667 121.173333-279.893333 274.773333s121.173333 278.186667 274.773333 279.893333c153.6 1.706667 278.186667-121.173333 279.893333-274.773333v-1.706667c0-153.6-122.88-278.186667-274.773333-278.186666m0 469.333333c-105.813333 1.706667-192.853333-83.626667-192.853333-191.146667-1.706667-105.813333 83.626667-192.853333 191.146666-192.853333 105.813333-1.706667 192.853333 83.626667 192.853334 191.146667v1.706666c0 104.106667-85.333333 189.44-191.146667 191.146667 0-1.706667 0-1.706667 0 0m0 0z" p-id="2389" fill="#2c2c2c"></path></svg>